<?xml version="1.0" standalone="no"?>
<!DOCTYPE svg PUBLIC "-//W3C//DTD SVG 20010904//EN"
 "http://www.w3.org/TR/2001/REC-SVG-20010904/DTD/svg10.dtd">
<svg version="1.0" xmlns="http://www.w3.org/2000/svg"
 width="180.000000pt" height="180.000000pt" viewBox="0 0 180.000000 180.000000"
 preserveAspectRatio="xMidYMid meet">

<g transform="translate(0.000000,180.000000) scale(0.100000,-0.100000)"
fill="#000000" stroke="none">
<path d="M0 900 l0 -900 900 0 900 0 0 900 0 900 -900 0 -900 0 0 -900z m489
720 c77 -39 119 -121 107 -207 -20 -148 -157 -220 -257 -136 -82 69 -92 226
-21 307 20 22 89 55 115 56 10 0 35 -9 56 -20z m974 6 c105 -43 146 -188 85
-299 -57 -103 -188 -118 -258 -30 -53 67 -64 149 -31 225 41 95 125 138 204
104z m-1028 -465 c17 -10 61 -46 98 -79 53 -47 78 -62 110 -67 139 -21 177
-42 177 -96 0 -37 -33 -71 -63 -64 -196 43 -208 47 -265 90 -96 73 -142 121
-142 146 0 13 -4 30 -9 38 -16 25 -41 -6 -41 -50 0 -34 7 -46 53 -92 28 -28
71 -68 95 -88 l42 -36 0 -100 0 -100 80 -67 c127 -107 120 -91 120 -288 0
-166 0 -169 -25 -193 -38 -39 -86 -32 -110 16 -11 20 -15 61 -15 138 0 102 -2
111 -21 122 -15 8 -24 8 -32 0 -6 -6 -44 -11 -84 -11 -87 0 -85 2 -108 -135
-18 -112 -31 -153 -45 -139 -6 6 -6 32 1 69 36 212 36 205 -15 205 -54 0 -76
25 -86 100 -18 134 -40 305 -40 312 0 4 7 8 15 8 18 0 20 -9 41 -195 21 -193
18 -189 159 -193 71 -3 105 0 105 7 0 6 -4 11 -10 11 -5 0 -38 13 -73 30 -98
46 -97 43 -97 344 0 242 1 258 22 300 34 71 103 95 163 57z m1085 6 c14 -7 36
-33 50 -57 25 -45 25 -46 25 -307 0 -306 3 -296 -111 -353 l-69 -35 55 -3 c92
-6 159 6 174 31 8 12 21 83 31 157 22 188 25 200 42 200 17 0 14 -56 -17 -263
-20 -135 -32 -155 -99 -164 -22 -3 -41 -11 -41 -17 0 -7 9 -63 21 -125 14 -80
17 -117 10 -124 -6 -6 -13 -8 -16 -5 -3 3 -16 62 -29 132 -12 69 -25 129 -28
132 -4 3 -37 7 -75 9 -37 2 -76 7 -85 10 -9 4 -26 2 -37 -5 -19 -10 -21 -19
-21 -127 0 -106 -2 -119 -22 -140 -29 -31 -72 -30 -103 2 -25 24 -25 27 -25
198 l0 175 28 29 c15 16 59 54 98 86 l71 57 6 107 7 108 37 30 c21 16 62 52
91 81 46 45 52 56 52 91 0 38 -19 71 -33 56 -4 -3 -7 -21 -7 -40 0 -29 -10
-41 -95 -111 -88 -73 -100 -80 -182 -102 -135 -35 -167 -37 -187 -9 -25 36
-21 84 10 108 15 12 36 21 48 21 11 0 52 7 90 15 55 12 78 22 105 49 20 19 59
53 86 75 54 44 98 52 145 28z m-316 -393 c10 -26 7 -61 -7 -72 -7 -6 -64 -13
-128 -14 l-114 -3 -5 -295 -5 -295 -25 0 -25 0 -3 298 -2 297 -120 0 -120 0
-11 27 c-7 19 -7 35 0 50 l11 23 274 0 c240 0 275 -2 280 -16z"/>
</g>
</svg>
