<?xml version="1.0" encoding="UTF-8"?>
<svg 
  width="400" 
  height="466" 
  viewBox="0 0 200 233" 
  xmlns="http://www.w3.org/2000/svg"
  aria-label="Logo MesaPra2"
>
  <title>Logo MesaPra2</title>
  
  <defs>
    <linearGradient id="copper-gradient" x1="0%" y1="0%" x2="100%" y2="100%">
      <stop offset="0%" style="stop-color:#e6a987" />
      <stop offset="50%" style="stop-color:#d37e4f" />
      <stop offset="100%" style="stop-color:#b76b3e" />
    </linearGradient>
    
    <style>
      .logo-blue   { fill: #0a4a81; }
      .logo-copper { fill: url(#copper-gradient); }
      .heart-stroke {
        stroke: url(#copper-gradient);
        fill: none;
        stroke-width: 12;
        stroke-linecap: round;
      }
      .logo-text {
        font-family: 'Poppins', sans-serif;
        font-size: 28px;
        font-weight: 600;
        text-anchor: middle;
      }
    </style>
  </defs>
  
  <g transform="translate(0, 5)">
  
    <g class="heart-stroke">
      <path d="M100,175 C 30,130 30,60 90,35" />
      <path d="M100,175 C 170,130 170,60 110,35" />
    </g>
    
    <path 
      class="logo-copper" 
      d="M90,70 Q100,78 110,70 V60 Q115,55 112,48 C112,38 107,30 100,30 C93,30 88,38 88,48 Q85,55 90,60 Z" 
    />
    
    <g class="logo-blue">
      <path d="M95,95 C75,95 60,108 60,125 C60,142 75,155 95,155 C100,155 105,154 110,152 L100,167 L115,150 C122,145 125,135 125,125 C125,108 110,95 95,95 Z" />
      <path d="M130,90 C115,90 100,100 100,115 C100,130 115,140 130,140 C135,140 140,139 145,137 L135,152 L150,135 C157,130 160,123 160,115 C160,100 145,90 130,90 Z" />
    </g>
    
    <g class="logo-copper">
      <circle cx="80" cy="125" r="3.5" />
      <circle cx="95" cy="125" r="3.5" />
      <circle cx="110" cy="125" r="3.5" />
      
      <g transform="translate(130, 108) scale(0.9)">
        <path d="M5,2 v10 c0,2 -1,3 -2,3 s-2,-1 -2,-3 v-10 H-1 v10 c0,4 2,6 4,6 s4,-2 4,-6 v-10 H5 z m-2,12 v13 h2 v-13 H3 z" />
        <path d="M10,0 l3,-2 v29 h-3 z" transform="translate(4, 2)" />
      </g>
    </g>
    
  </g>
  
  <text class="logo-text" x="100" y="215">
    <tspan class="logo-blue">mes</tspan>
    <tspan class="logo-copper">a</tspan>
    <tspan class="logo-blue">pr</tspan>
    <tspan class="logo-copper">a</tspan>
    <tspan class="logo-blue">2</tspan>
  </text>
  
</svg>